<svg xmlns="http://www.w3.org/2000/svg" viewBox="0 0 797.92 267.46"><defs><style>.cls-1{fill:#e5212d;}.cls-2{fill:#fff;}</style></defs><g id="Capa_2" data-name="Capa 2"><g id="Capa_1-2" data-name="Capa 1"><path class="cls-1" d="M758.92,130.47,758.08,114l-.75-16.47.64,1.27a152.21,152.21,0,0,0-13.91-7.38c-4.73-2.31-9.56-4.42-14.44-6.4-9.78-3.89-19.68-7.42-29.75-10.34s-20.26-5.38-30.52-7.4-20.6-3.6-31-4.74q-7.77-.86-15.59-1.38c-2.41-.17-5.3-.33-7.81-.45s-5.09-.18-7.69-.2c-10.35-.11-20.75.35-31.15,1.15s-20.83,2.07-31.28,3.47-20.9,3-31.4,4.66-21,3.3-31.64,4.8-21.26,2.89-32,4-21.51,1.87-32.32,2.27-21.67.3-32.5-.29A292.1,292.1,0,0,1,352.68,77,272,272,0,0,1,321,69.86,258.26,258.26,0,0,1,290.6,59a255.74,255.74,0,0,1-28.69-14.45c10,3.87,20,7.39,30.15,10.41,5.08,1.5,10.19,2.85,15.3,4.16s10.27,2.4,15.45,3.34A310.7,310.7,0,0,0,354,66.81q15.66,1.32,31.37,1.28c10.46,0,20.92-.49,31.38-1.31s20.89-2,31.33-3.34,20.88-3,31.34-4.66l31.49-5.15c10.54-1.71,21.13-3.35,31.81-4.72,5.34-.69,10.7-1.33,16.07-1.89s10.79-1,16.21-1.33,10.86-.57,16.31-.68,10.93,0,16.4.21q4.08.16,8.27.46c2.81.22,5.23.4,8.12.75q8.11.89,16.17,2.13a320.52,320.52,0,0,1,31.88,6.69c5.25,1.37,10.45,2.93,15.62,4.55s10.27,3.5,15.31,5.48a254.14,254.14,0,0,1,29.53,13.44,177.49,177.49,0,0,1,27.27,17.55l.67.54,0,.73L759.75,114Z"/><path class="cls-2" d="M72.88,137.79a56.3,56.3,0,0,1-6.74-10.88Q64.72,124,63.55,121c-.78-2-1.46-4.06-2.09-6.13s-1.13-4.17-1.6-6.29-.84-4.25-1.13-6.4c-.18-1.08-.27-2.16-.39-3.24s-.23-2.17-.27-3.25c-.16-2.18-.16-4.36-.19-6.54s.09-4.37.3-6.54.42-4.35.68-6.52.66-4.33,1.11-6.47.89-4.29,1.48-6.4,1.2-4.2,1.87-6.29,1.47-4.12,2.19-6.19,1.66-4,2.49-6.07l2.77-5.94,1.65-3.57,4.12,1.59c1.95.76,4.39,1.53,6.66,2.17s4.67,1.26,7,1.77c4.75,1,9.54,1.93,14.38,2.56a191.59,191.59,0,0,0,29.23,1.62c4.89-.1,9.77-.34,14.65-.78,2.43-.2,4.87-.4,7.3-.7s4.86-.58,7.28-.92a249.94,249.94,0,0,0,28.77-5.89c4.73-1.26,9.44-2.63,14.1-4.16,2.34-.72,4.66-1.53,7-2.35L220,27.61c4.73-1.68,9.45-3.36,14.34-4.95S244,19.5,248.9,18c9.75-2.89,19.56-5.66,29.51-7.94s20-4.33,30.09-5.9S328.8,1.44,339,.77s20.48-.95,30.72-.66,20.45,1,30.58,2.13S420.53,5,430.52,6.85s19.87,4.15,29.69,6.59,19.56,5.13,29.21,8.08,19.28,5.92,28.8,9.21,19,6.59,28.48,10.1c-19.67-4.37-39.24-9-58.86-13.09-9.83-2-19.63-4-29.46-5.81s-19.69-3.28-29.54-4.66-19.73-2.35-29.6-3-19.75-1-29.62-.93-19.71.52-29.51,1.4-19.6,2.06-29.32,3.73c-4.87.75-9.71,1.74-14.56,2.65s-9.67,2-14.47,3.22c-9.63,2.23-19.2,4.82-28.72,7.61s-18.86,5.75-28.44,9l-7.19,2.39c-2.44.81-4.89,1.6-7.37,2.3-4.93,1.48-9.91,2.79-14.91,4a262.86,262.86,0,0,1-30.42,5.43,213.94,213.94,0,0,1-30.89,1.5,201.91,201.91,0,0,1-30.82-3,152.85,152.85,0,0,1-15.16-3.42c-2.5-.69-5-1.48-7.46-2.33s-4.84-1.74-7.51-3l5.77-2-3,5.42C74.8,50.19,73.84,52,73,53.89s-1.73,3.74-2.43,5.67-1.5,3.83-2.13,5.79-1.29,3.9-1.88,5.87-1,4-1.53,6-.85,4-1.13,6.07-.54,4.09-.78,6.14-.31,4.12-.32,6.19,0,4.13,0,6.21.26,4.14.48,6.21.56,4.12.94,6.18a89,89,0,0,0,3.28,12.12A61.24,61.24,0,0,0,72.88,137.79Z"/><path class="cls-2" d="M72.88,137.79a56.3,56.3,0,0,1-6.74-10.88Q64.72,124,63.55,121c-.78-2-1.46-4.06-2.09-6.13s-1.13-4.17-1.6-6.29-.84-4.25-1.13-6.4c-.18-1.08-.27-2.16-.39-3.24s-.23-2.17-.27-3.25c-.16-2.18-.16-4.36-.19-6.54s.09-4.37.3-6.54.42-4.35.68-6.52.66-4.33,1.11-6.47.89-4.29,1.48-6.4,1.2-4.2,1.87-6.29,1.47-4.12,2.19-6.19,1.66-4,2.49-6.07l2.77-5.94,1.65-3.57,4.12,1.59c1.95.76,4.39,1.53,6.66,2.17s4.67,1.26,7,1.77c4.75,1,9.54,1.93,14.38,2.56a191.59,191.59,0,0,0,29.23,1.62c4.89-.1,9.77-.34,14.65-.78,2.43-.2,4.87-.4,7.3-.7s4.86-.58,7.28-.92a249.94,249.94,0,0,0,28.77-5.89c4.73-1.26,9.44-2.63,14.1-4.16,2.34-.72,4.66-1.53,7-2.35L220,27.61c4.73-1.68,9.45-3.36,14.34-4.95S244,19.5,248.9,18c9.75-2.89,19.56-5.66,29.51-7.94s20-4.33,30.09-5.9S328.8,1.44,339,.77s20.48-.95,30.72-.66,20.45,1,30.58,2.13S420.53,5,430.52,6.85s19.87,4.15,29.69,6.59,19.56,5.13,29.21,8.08,19.28,5.92,28.8,9.21,19,6.59,28.48,10.1c-19.67-4.37-39.24-9-58.86-13.09-9.83-2-19.63-4-29.46-5.81s-19.69-3.28-29.54-4.66-19.73-2.35-29.6-3-19.75-1-29.62-.93-19.71.52-29.51,1.4-19.6,2.06-29.32,3.73c-4.87.75-9.71,1.74-14.56,2.65s-9.67,2-14.47,3.22c-9.63,2.23-19.2,4.82-28.72,7.61s-18.86,5.75-28.44,9l-7.19,2.39c-2.44.81-4.89,1.6-7.37,2.3-4.93,1.48-9.91,2.79-14.91,4a262.86,262.86,0,0,1-30.42,5.43,213.94,213.94,0,0,1-30.89,1.5,201.91,201.91,0,0,1-30.82-3,152.85,152.85,0,0,1-15.16-3.42c-2.5-.69-5-1.48-7.46-2.33s-4.84-1.74-7.51-3l5.77-2-3,5.42C74.8,50.19,73.84,52,73,53.89s-1.73,3.74-2.43,5.67-1.5,3.83-2.13,5.79-1.29,3.9-1.88,5.87-1,4-1.53,6-.85,4-1.13,6.07-.54,4.09-.78,6.14-.31,4.12-.32,6.19,0,4.13,0,6.21.26,4.14.48,6.21.56,4.12.94,6.18a89,89,0,0,0,3.28,12.12A61.24,61.24,0,0,0,72.88,137.79Z"/><path class="cls-2" d="M146.79,201.52,142,187.86H105.69l-5,13.66H67.89l40.83-96.69h32.83l39.31,96.69ZM114,165H134.1l-9.93-28.28Z"/><path class="cls-2" d="M257.28,110.76a43.21,43.21,0,0,1,18.35,16.9q6.48,11,6.48,25.45t-6.62,25.51a44.3,44.3,0,0,1-18.83,16.9q-12.21,6-28.35,6H186.38V104.83h43.18Q245.42,104.83,257.28,110.76Zm-13,59.58q5.17-6.33,5.18-17t-5.59-17.24q-5.58-6.48-15-6.48H218.38v47h12A16.92,16.92,0,0,0,244.24,170.34Z"/><path class="cls-2" d="M346.66,201.52l-11.58-25.1h-12v25.1h-32V104.83h46.76q19.73,0,30.49,9t10.76,25.59a40.06,40.06,0,0,1-3.93,18.27,30.06,30.06,0,0,1-11.38,12.35l19,31.45Zm-23.58-49.38h14.75q5.25,0,8.08-3.11t2.82-8.61c0-3.59-.94-6.38-2.82-8.35s-4.58-3-8.08-3H323.08Z"/><path class="cls-2" d="M391.07,104.83h32v96.69h-32Z"/><path class="cls-2" d="M507.49,201.52l-4.82-13.66H466.39l-5,13.66H428.59l40.83-96.69h32.83l39.32,96.69ZM474.66,165H494.8l-9.93-28.28Z"/><path class="cls-2" d="M612.05,104.83h29v96.69H614.26l-38.07-49.38v49.38H547.08V104.83h26.76l38.21,49.65Z"/><path class="cls-2" d="M730.4,109.24a47.86,47.86,0,0,1,19,17.93A49.45,49.45,0,0,1,756.2,153,50.43,50.43,0,0,1,749.37,179a48.09,48.09,0,0,1-19,18.14,60.21,60.21,0,0,1-54.62,0,48.09,48.09,0,0,1-19-18.14A50.43,50.43,0,0,1,650,153,49.64,49.64,0,0,1,656.81,127a47.37,47.37,0,0,1,19-17.87,61.08,61.08,0,0,1,54.62.07Zm-37.17,23.24a22.34,22.34,0,0,0-7.59,8.49,25.76,25.76,0,0,0-2.83,12.14,26.15,26.15,0,0,0,2.83,12.2,22.81,22.81,0,0,0,7.59,8.62,18.14,18.14,0,0,0,10.27,3.18A17.47,17.47,0,0,0,713.57,174a21.12,21.12,0,0,0,7.18-8.62,28.17,28.17,0,0,0,2.62-12.27,27.75,27.75,0,0,0-2.62-12.21,20.63,20.63,0,0,0-7.18-8.48,17.71,17.71,0,0,0-10.07-3A18.44,18.44,0,0,0,693.23,132.48Z"/><path class="cls-1" d="M8.74,260,5.62,267.1H0l13.73-31.16h5.62L33.08,267.1H27.46L24.34,260Zm13.46-4.86-5.66-12.84-5.66,12.84Z"/><path class="cls-1" d="M52.56,260a7.26,7.26,0,0,0,5.8,2.49,7.26,7.26,0,0,0,5.8-2.49,10.13,10.13,0,0,0,2.14-6.78V235.94h5.26v17.47q0,6.73-3.7,10.37a13,13,0,0,1-9.5,3.63,13,13,0,0,1-9.5-3.63q-3.69-3.63-3.7-10.37V235.94h5.26v17.25A10.13,10.13,0,0,0,52.56,260Z"/><path class="cls-1" d="M100.49,240.75V267.1H95.23V240.75H85.78v-4.81h24.16v4.81Z"/><path class="cls-1" d="M149.8,262.8a17.1,17.1,0,0,1-23.36,0,16.36,16.36,0,0,1,0-23,17.1,17.1,0,0,1,23.36,0,16.36,16.36,0,0,1,0,23Zm-3.86-19.51a10.92,10.92,0,0,0-15.64,0,11.64,11.64,0,0,0,0,16,10.92,10.92,0,0,0,15.64,0,11.64,11.64,0,0,0,0-16Z"/><path class="cls-1" d="M175.35,267.1h-5.26V235.94h8.2l9.41,19.57,9.41-19.57h8.15V267.1H200V242.76l-10.88,21.62h-2.94l-10.83-21.62Z"/><path class="cls-1" d="M248.91,262.8a17.1,17.1,0,0,1-23.36,0,16.36,16.36,0,0,1,0-23,17.1,17.1,0,0,1,23.36,0,16.36,16.36,0,0,1,0,23Zm-3.85-19.51a10.93,10.93,0,0,0-15.65,0,11.64,11.64,0,0,0,0,16,10.93,10.93,0,0,0,15.65,0,11.67,11.67,0,0,0,0-16Z"/><path class="cls-1" d="M280.12,240.75V267.1h-5.26V240.75h-9.45v-4.81h24.16v4.81Z"/><path class="cls-1" d="M329.07,246.06q0,7.71-6.73,9.72l8.16,11.32h-6.69l-7.44-10.48h-6.91V267.1h-5.27V235.94h11.6q7.13,0,10.21,2.4T329.07,246.06Zm-7,4.41a5.56,5.56,0,0,0,1.61-4.44c0-2-.55-3.43-1.65-4.19s-3.06-1.13-5.89-1.13h-6.68v11.14H316Q320.47,251.85,322.07,250.47Z"/><path class="cls-1" d="M345.57,235.94h5.26V267.1h-5.26Z"/><path class="cls-1" d="M384.31,240.75H366.75v-4.81h24.87V240l-18.1,22.07v.13h18.37v4.86H366.17V263l18.14-22.16Z"/><path class="cls-1" d="M440.8,267.1h-5.35V254.79l-11.59-18.85h5.75l8.51,14.17,8.52-14.17h5.75L440.8,254.79Z"/><path class="cls-1" d="M495.84,240a7,7,0,0,0-3.77.93,3.14,3.14,0,0,0-1.47,2.83,3.29,3.29,0,0,0,1.47,2.9,22.1,22.1,0,0,0,6.27,2.16,17.29,17.29,0,0,1,7.22,3.26,7.7,7.7,0,0,1,2.43,6.17,8.18,8.18,0,0,1-3.08,6.62,12.23,12.23,0,0,1-8.07,2.55,18.94,18.94,0,0,1-13-5l3.3-4q4.72,4.11,9.81,4.1a6.69,6.69,0,0,0,4-1.09,3.4,3.4,0,0,0,1.49-2.9,3.25,3.25,0,0,0-1.4-2.81,15,15,0,0,0-4.84-1.83,43.11,43.11,0,0,1-5.21-1.51,11.58,11.58,0,0,1-3.17-1.81q-2.76-2.08-2.76-6.42a7.79,7.79,0,0,1,3.14-6.66,12.66,12.66,0,0,1,7.78-2.34,18.48,18.48,0,0,1,5.93,1,15.44,15.44,0,0,1,5.08,2.76l-2.81,4a10.59,10.59,0,0,0-3.74-2A14.32,14.32,0,0,0,495.84,240Z"/><path class="cls-1" d="M545.31,235.94v4.94H528.68v8.25h14.93v4.68H528.68v8.34h17.16v5H523.41V235.94Z"/><path class="cls-1" d="M586.36,246.06q0,7.71-6.73,9.72l8.16,11.32H581.1l-7.44-10.48h-6.91V267.1h-5.26V235.94h11.59q7.13,0,10.21,2.4T586.36,246.06Zm-7,4.41A5.56,5.56,0,0,0,581,246c0-2-.55-3.43-1.65-4.19s-3.06-1.13-5.88-1.13h-6.69v11.14h6.55C576.27,251.85,578.3,251.39,579.37,250.47Z"/><path class="cls-1" d="M616.68,267.1H610.8l-12.53-31.16h5.88l9.59,23.27,9.59-23.27h5.88Z"/><path class="cls-1" d="M642.59,235.94h5.26V267.1h-5.26Z"/><path class="cls-1" d="M679.64,262.33a11,11,0,0,0,4.68-.92,16,16,0,0,0,4.1-2.91l3.39,3.47a15.6,15.6,0,0,1-12,5.49,16.09,16.09,0,0,1-11.72-4.55,15.38,15.38,0,0,1-4.66-11.5,15.55,15.55,0,0,1,4.75-11.6,16.45,16.45,0,0,1,12-4.63,15.66,15.66,0,0,1,12.1,5.35l-3.34,3.65a14.68,14.68,0,0,0-4.21-3,11.75,11.75,0,0,0-4.66-.85,11.1,11.1,0,0,0-7.94,3.05,10.31,10.31,0,0,0-3.21,7.81,10.74,10.74,0,0,0,3.19,7.93A10.3,10.3,0,0,0,679.64,262.33Z"/><path class="cls-1" d="M707.14,235.94h5.27V267.1h-5.27Z"/><path class="cls-1" d="M756.05,262.8a17.1,17.1,0,0,1-23.36,0,16.38,16.38,0,0,1,0-23,17.1,17.1,0,0,1,23.36,0,16.36,16.36,0,0,1,0,23Zm-3.85-19.51a10.93,10.93,0,0,0-15.65,0,11.64,11.64,0,0,0,0,16,10.93,10.93,0,0,0,15.65,0,11.67,11.67,0,0,0,0-16Z"/><path class="cls-1" d="M785.77,240A7,7,0,0,0,782,241a3.14,3.14,0,0,0-1.47,2.83,3.29,3.29,0,0,0,1.47,2.9,22.12,22.12,0,0,0,6.26,2.16,17.28,17.28,0,0,1,7.23,3.26,7.7,7.7,0,0,1,2.43,6.17,8.18,8.18,0,0,1-3.08,6.62,12.23,12.23,0,0,1-8.07,2.55,18.94,18.94,0,0,1-13-5l3.3-4q4.73,4.11,9.8,4.1a6.7,6.7,0,0,0,4-1.09,3.4,3.4,0,0,0,1.49-2.9,3.27,3.27,0,0,0-1.4-2.81,15,15,0,0,0-4.84-1.83,43.94,43.94,0,0,1-5.22-1.51,11.67,11.67,0,0,1-3.16-1.81c-1.84-1.39-2.77-3.53-2.77-6.42a7.8,7.8,0,0,1,3.15-6.66,12.66,12.66,0,0,1,7.78-2.34,18.48,18.48,0,0,1,5.93,1,15.44,15.44,0,0,1,5.08,2.76l-2.81,4a10.59,10.59,0,0,0-3.74-2A14.32,14.32,0,0,0,785.77,240Z"/></g></g></svg>